<svg width="1600" height="280" viewBox="0 0 1600 280" fill="none" xmlns="http://www.w3.org/2000/svg">
  <defs>
    <linearGradient id="bg" x1="0" y1="0" x2="1600" y2="280" gradientUnits="userSpaceOnUse">
      <stop offset="0" stop-color="#070B14"/>
      <stop offset="0.55" stop-color="#111827"/>
      <stop offset="1" stop-color="#0B1220"/>
    </linearGradient>
    <radialGradient id="glowA" cx="0" cy="0" r="1" gradientUnits="userSpaceOnUse" gradientTransform="translate(410 120) rotate(20) scale(260 180)">
      <stop stop-color="#93A4C333"/>
      <stop offset="1" stop-color="#93A4C300"/>
    </radialGradient>
    <radialGradient id="glowB" cx="0" cy="0" r="1" gradientUnits="userSpaceOnUse" gradientTransform="translate(1230 170) rotate(-15) scale(300 200)">
      <stop stop-color="#6B7A9630"/>
      <stop offset="1" stop-color="#6B7A9600"/>
    </radialGradient>
    <pattern id="grid" width="32" height="32" patternUnits="userSpaceOnUse">
      <path d="M 32 0 L 0 0 0 32" fill="none" stroke="#93A4C314" stroke-width="1"/>
    </pattern>
    <linearGradient id="line" x1="0" y1="0" x2="1600" y2="0" gradientUnits="userSpaceOnUse">
      <stop offset="0" stop-color="#00000000"/>
      <stop offset="0.5" stop-color="#9CA3AF66"/>
      <stop offset="1" stop-color="#00000000"/>
    </linearGradient>
  </defs>

  <rect width="1600" height="280" rx="22" fill="url(#bg)"/>
  <rect width="1600" height="280" rx="22" fill="url(#grid)"/>
  <rect width="1600" height="280" rx="22" fill="url(#glowA)"/>
  <rect width="1600" height="280" rx="22" fill="url(#glowB)"/>

  <path d="M0 210C220 180 390 250 600 210C840 160 980 240 1210 202C1385 174 1510 203 1600 193" stroke="url(#line)" stroke-width="2"/>
  <path d="M0 230C250 205 415 256 610 226C845 190 992 258 1230 224C1408 198 1515 222 1600 214" stroke="#9CA3AF22" stroke-width="1"/>

  <g opacity="0.75">
    <text x="70" y="88" fill="#E5E7EB" font-size="22" font-family="'IBM Plex Sans', 'Segoe UI', sans-serif" letter-spacing="1.6">NO DARKNESS / CLEAR SYSTEMS</text>
    <text x="70" y="118" fill="#9CA3AF" font-size="13" font-family="'IBM Plex Sans', 'Segoe UI', sans-serif" letter-spacing="0.8">Minimal surface, reliable rhythm, deliberate product execution.</text>
  </g>
</svg>
